<svg xmlns="http://www.w3.org/2000/svg" xmlns:xlink="http://www.w3.org/1999/xlink" width="809" height="816" xmlns:v="https://vecta.io/nano"><style><![CDATA[.B{fill:#fff}.C{fill:#8dc63f}.D{fill:#dfe5ea}.E{fill:#333}.F{fill-rule:nonzero}.G{fill:#0d3956}.H{fill:#1b5e92}.I{opacity:.57}.J{mask:url(#W)}]]></style><defs><linearGradient x1="45.0522901%" y1="6.46350337%" x2="50%" y2="50%" id="A"><stop stop-color="#dee2fe" offset="0%"/><stop stop-color="#aee5f2" offset="100%"/></linearGradient><path d="M24.22 0c63.917 44.218 93.296 83.588 88.14 118.11s-17.754 66.804-37.8 96.84c-24.92 32.03-22.572 70.38 7.045 115.047s29.617 90 0 136c-50.03 75.492-42.662 135.214 22.106 179.166S133.914 746.062 0 816h807.22V0h-783z" id="B"/><path id="C" d="M.105.625h12.52v12.527H.105z"/><path id="D" d="M0 0h5.778v5.78H0z"/><linearGradient x1="43.2991284%" y1="77.3957157%" x2="63.5481471%" y2="50%" id="E"><stop stop-color="#fff" offset="0%"/><stop stop-color="#939fff" offset="100%"/></linearGradient><ellipse id="F" cx="60.178" cy="60.21" rx="60.178" ry="60.21"/><path d="M87.694.2l-4.077 1.57c-.7.27-1.05 1.057-.783 1.76h0l3.06 8.044c.06.155.1.32.1.486h0v12.18c0 .47-.242.908-.64 1.157h0l-5.758 3.602c-.515.323-.755.948-.59 1.532h0L82.9 44.17c.204.715-.202 1.463-.913 1.68h0l-6.804 2.076a1.36 1.36 0 0 0-.811.675h0L70.3 56.41a1.37 1.37 0 0 1-.643.611h0l-19.675 9c-.486.222-.797.707-.797 1.24h0v3.054c0 .63-.43 1.177-1.04 1.325h0l-16.87 4.118c-.447.1-.81.437-.962.872h0l-2.245 6.37c-.147.417-.487.737-.91.858h0L1.484 91.194c-1.4.398-1.29 2.404.132 2.657h0c81.044 14.37 315.264-4.942 350.633-7.98h0c1.346-.115 1.718-1.91.53-2.557h0l-6.03-3.293-7.75-4.436a1.39 1.39 0 0 0-.413-.155h0l-13.163-2.6c-.31-.06-.6-.228-.8-.473h0l-9.83-11.977c-.2-.244-.3-.55-.3-.866h0v-9.1a2.99 2.99 0 0 0-2.255-2.9h0l-4.394-1.112c-.11-.028-.222-.042-.335-.042h0-7.897c-.362 0-.708-.144-.964-.4h0a31.22 31.22 0 0 1-6.976-10.662h0l-1.436-3.658a6.76 6.76 0 0 0-4.274-3.982h0c-2.773-.867-5.417-2.107-7.857-3.683h0l-10.3-6.658c-.063-.04-.122-.087-.178-.137h0l-5.848-5.32a11.96 11.96 0 0 0-9.513-3.026h0l-19.928 2.455c-2.763.34-5.55.47-8.332.39h0l-42.612-1.242-33.35-2.256a1.36 1.36 0 0 0-.522.067h0l-9.002 3.003a1.36 1.36 0 0 1-.582.062h0l-14.912-1.66c-.662-.073-1.28.34-1.46.98h0l-.526 1.843a1.37 1.37 0 0 0-.049.473h0l.418 5.855c.013.18.06.353.14.513h0l4.732 9.474a1.36 1.36 0 0 1 .144.61h0v9.875c0 .174-.033.346-.098.507h0l-.93 2.33c-.503 1.26-2.333 1.092-2.6-.237h0l-1.29-6.392a1.36 1.36 0 0 0-.357-.68h0l-2.792-2.883c-.073-.074-.154-.14-.242-.198h0l-5.603-3.605c-.4-.25-.625-.683-.625-1.147h0v-8.6a1.4 1.4 0 0 0-.06-.402h0l-3.514-11.43c-.04-.13-.06-.265-.06-.402h0V3.622c0-.753-.6-1.364-1.363-1.364h0c-.753 0-1.363.61-1.363 1.364h0v9.86a1.34 1.34 0 0 1-.03.286h0l-2.558 11.95c-.087.405-.353.75-.724.934h0l-.167.084c-.906.453-1.973-.206-1.973-1.22h0v-9.37c0-.44-.212-.854-.57-1.1h0l-5.22-3.73c-.358-.256-.57-.67-.57-1.1h0v-6.64c0-.517-.29-.99-.753-1.22h0L88.793.253c-.19-.095-.4-.144-.6-.144h0c-.165 0-.33.03-.49.09h0z" id="G"/><linearGradient x1="49.9787325%" y1="100%" x2="49.9787325%" y2="0%" id="H"><stop stop-color="#649b1a" offset="3%"/><stop stop-color="#669d1c" offset="50%"/><stop stop-color="#6da422" offset="70%"/><stop stop-color="#78b12d" offset="85%"/><stop stop-color="#89c23c" offset="98%"/><stop stop-color="#8cc63f" offset="100%"/></linearGradient><linearGradient x1="50%" y1="100%" x2="50%" y2="0%" id="I"><stop stop-color="#72aa27" offset="0%"/><stop stop-color="#6a9720" offset="32%"/><stop stop-color="#668c1b" offset="65%"/><stop stop-color="#64881a" offset="100%"/></linearGradient><linearGradient x1="50.1204819%" y1="0%" x2="50.1204819%" y2="100%" id="J"><stop stop-color="#72aa27" offset="0%"/><stop stop-color="#6a9720" offset="32%"/><stop stop-color="#668c1b" offset="65%"/><stop stop-color="#64881a" offset="100%"/></linearGradient><linearGradient x1="52.0715881%" y1="52.8219466%" x2="42.5998255%" y2="50%" id="K"><stop stop-color="#fff" offset="0%"/><stop stop-color="#fff" offset="12.6952696%"/><stop stop-color="#eee" offset="100%"/></linearGradient><linearGradient x1="50.0001408%" y1="90.0212577%" x2="50.0001408%" y2="10.002362%" id="L"><stop stop-color="#ea4747" offset="0%"/><stop stop-color="#d46a6b" offset="100%"/></linearGradient><path id="M" d="M2.89 5.78L2.29 4.545a1.86 1.86 0 0 0-.777-.819L0 2.89l1.47-.763a1.86 1.86 0 0 0 .83-.865L2.89 0l.59 1.262a1.86 1.86 0 0 0 .83.865l1.47.763-1.514.835c-.337.186-.61.472-.777.82l-.6 1.237z"/><path id="N" d="M18.203 17.824c-3.995 2.618-7.195 14.544-7.195 18.907v44.914h14.398V36.74c0-4.37-3.205-16.298-7.204-18.916z"/><path id="O" d="M35.486 18.974h0c-4.377 2.247-8.927 12.54-8.927 17.405v42.39h17.854V36.38c0-4.865-4.553-15.158-8.927-17.405z"/><path id="P" d="M28.574 69.57c-.794 0-1.44 1.454-1.44 3.23v7.12h2.88V72.8c0-1.777-.65-3.23-1.44-3.23z"/></defs><g transform="translate(.781)" fill="none" fill-rule="evenodd"><mask id="Q" class="B"><use xlink:href="#B"/></mask><use fill="url(#A)" xlink:href="#B"/><path fill="#e9e9ff" mask="url(#Q)" d="M28.22 508l56-95 517-5 206 18v390H.22z"/><g transform="translate(121.122 87.851)" class="B"><g transform="translate(371.096 36.149)"><mask id="R"><use xlink:href="#C"/></mask><path d="M6.365 13.152l-1.297-2.68C4.704 9.72 4.116 9.1 3.385 8.698l-3.28-1.81 3.186-1.654c.8-.4 1.422-1.068 1.798-1.875L6.365.625 7.64 3.36c.377.807 1.008 1.465 1.798 1.875l3.186 1.654-3.28 1.81c-.73.403-1.32 1.023-1.683 1.775l-1.297 2.68z" mask="url(#R)"/></g><circle cx="88.451" cy="89.699" r="1.445"/><circle cx="142.052" cy="262.575" r="1.445"/><g transform="translate(528.723 255.349)"><mask id="S"><use xlink:href="#D"/></mask><use xlink:href="#M" mask="url(#S)"/></g><g transform="translate(603.843)"><mask id="T"><use xlink:href="#E" href="#D"/></mask><use xlink:href="#M" mask="url(#T)"/></g><g transform="translate(0 173.444)"><mask id="U"><use xlink:href="#F" href="#D"/></mask><use xlink:href="#M" mask="url(#U)"/></g><circle cx="515.722" cy="307.864" r="1.445"/><circle cx="155.535" cy="51.552" r="1.445"/><circle cx="546.596" cy="271.649" r="1"/></g><path d="M.392 165.465c2.135-8.412 4.413-16.22 6.744-23.837 1.146-3.852 2.356-7.497 3.54-11.262l3.62-10.917c2.443-7.163 4.964-14.003 7.564-20.52l7.81-19.553 7.733-19.83 7.772-19.657L60.798.904l.267 1.088-14.568 43.304L39.18 66.75l-7.375 21.315-7.297 21.574c-2.426 7.232-4.938 14.14-7.538 20.728l-3.938 9.57-4.016 9.3C6.344 155.417 3.555 161.223.66 166.64l-.267-1.175z" transform="matrix(.707107 .707107 -.707107 .707107 731.341834 78.536274)" fill="url(#E)" opacity=".7" class="F"/><ellipse cx="232.813" cy="110.599" rx="10.594" ry="10.599" class="B"/><path d="M238.946 118.884l-.02.016c-1.763 1.437-4.013 2.298-6.464 2.298-5.657 0-10.242-4.588-10.242-10.248a10.21 10.21 0 0 1 2.314-6.488c1.282 7.345 7.073 13.14 14.414 14.42z" fill="#d0d0d0" opacity=".674"/><g fill="#e0e0e0"><ellipse cx="232.813" cy="104.818" rx="1.926" ry="1.927" class="I"/><ellipse cx="235.702" cy="111.563" rx="1.926" ry="1.927" class="I"/></g><g transform="matrix(.965926 -.258819 .258819 .965926 112.327182 273.381731)"><mask id="V" class="B"><use xlink:href="#F"/></mask><use fill="#939fff" xlink:href="#F"/><g mask="url(#V)"><g transform="translate(-25.077 -16.725)"><g fill="#bbc3ff"><path d="M37.103 18.052c9.784 10.063 20.562 15.5 35.138 13.868 6.805-.76 11.86-4.65 19.005-2.607 30.264 8.66 6.633 8.135 32.544 10.06 4.04.3 8.18.78 12.155 0 3.682-.723 7.46-6.807 10.353-4.418 4.203 3.47 6.906 11.604 3.617 15.95-5.396 7.132-17.986-1.73-23.74-2.86-8.57-1.68-16.656 6.74-24.46 3.38-7.398-3.185-14.128-13.393-23.943-10.778-24.47 6.52-7.63 10.802-38.166 14.185-6.193.686-21.1 6.23-18.686.487l-5.873-2.537c49.708-117.72 7.9 3.577 20.252-32.82l1.804-1.9zM15.883 72.3c18.552 3.517 29.818-4.817 47.1-11.3 11.956-4.48 20.087 1.702 31.643 3.084 12.922 1.545 6.923-2.803 17.776-5.852 9-2.53 21.5 4.553 28.447 5.7 4.275.704 8.866-1.755 13-.428 1.555.5-2.05 2.627-3.43 3.503-2.312 1.47-4.736 3.594-7.47 3.425-4.513-.28-8.358-3.54-12.735-4.676-1.355-.352-2.887-.23-4.2.283-4.522 1.786-8.85 4.07-13.046 6.523-2.267 1.326-3.688 4.294-6.27 4.77-4.32.798-9.005.338-13.123-1.2-6.048-2.243-10.825-7.098-16.657-9.855-2.035-.962-4.595-2.084-6.65-1.166-4.544 2.03-7.532 6.544-11.65 9.338-2.766 1.876-6.158 2.702-8.907 4.603-3.434 2.375-6.025 5.856-9.52 8.14-4.454 2.912-9.142 5.6-14.17 7.348-2.236.773-6.116 2.154-7.098 0-2.83-6.212-1.455-13.576-2.183-20.364l-.85-1.896zm10.03 33.54c13.642-.355 23.65.336 35.77-5.654 13.437-6.64 26.354-18.373 42.47-16.325 11.828 1.503 18.05 13.024 31.137 11.708 5.425-.546 13.708-7.56 16.138-2.675 3.104 6.238-1.5 16.47-7.826 19.382-6.173 2.84-12.567-5.313-19.158-6.963-2.803-.7-5.86-.68-8.667 0-2.868.695-5 3.38-7.9 4-7.834 1.72-13.826-5.218-21.733-2.527C59.967 115.7 64.79 121.09 40.52 117.38c-1.777-.272-4.307 1.58-5.392.147l-3.7 1.753c-2.464-3.256-2.522-7.77-3.782-11.654l-1.72-1.787zm24.237 28.992c21.832-22.087 54.42-6.482 80.738-9.052 4.75-.464 9.985-6.624 13.814-3.773 3.045 2.268-4.98 5.815-8.022 8.086s-6.385 4.3-10.022 5.383c-14.738 4.35-28.728-10.902-44.208-5.684-5.675 1.913-9.126 7.936-14.45 10.68-2.66 1.37-5.904 1.707-8.874 1.346-2.65-.323-5.405-1.423-7.3-3.314-1.266-1.27-.823-3.5-1.234-5.235"/></g><path d="M128.736 126.587l-.304.246a69.3 69.3 0 0 1-43.661 15.398c-38.45 0-69.618-31.186-69.618-69.655 0-15.98 5.378-30.702 14.42-42.455 9.67 49.44 49.276 88.153 99.16 96.465z" fill-opacity=".45" fill="#4450a5" transform="matrix(.945519 .325568 -.325568 .945519 31.976103 -18.727772)"/></g></g></g><g transform="matrix(.999848 .017452 -.017452 .999848 127.618306 326.809557)"><mask id="W" class="B"><use xlink:href="#G"/></mask><path fill="#e9e9ff" d="M-6.498 120.126h365v-140h-365z" class="J"/><g fill="#c7c7f0" class="J"><path d="M323.214 66.542l-7.114 1.633c-1.04.165-1.897-.302-2.837-.63-.946-.33-1.928-.523-2.935-.615-2-.185-3.942.192-5.794.893-.964.366-1.93.807-2.964 1-1.22.216-2.335-.128-3.5-.388-4.473-.992-8.817.154-13.28.55-4.642.412-9.34-.393-14-.47-5.5-.092-10.977.214-16.454.52-.294.017-.534.107-.726.24-.04-.008-.077-.02-.12-.025a75.88 75.88 0 0 0-11.24-.445 1.33 1.33 0 0 0-.384.073l-3.122-.027c-2.035-.018-4.08-.087-6.114.003-1 .044-1.983.137-2.957.3-.486.086-.97.216-1.465.252-.474.035-.9-.036-1.35-.177-.86-.272-1.657-.66-2.556-.83-.955-.183-1.936-.223-2.9-.215-2.283.018-4.566.105-6.848.16-.936.023-.94 1.357 0 1.334l6.112-.148c.93-.02 1.878-.042 2.803.08.945.125 1.776.464 2.655.782.942.342 1.845.415 2.843.255s1.964-.362 2.977-.432c1.997-.14 4-.067 6-.05l1.616.014c.127.208.364.365.63.348l1.087-.068c.174.284.497.485.97.468a75.75 75.75 0 0 1 11.24.445 1.21 1.21 0 0 0 .338-.01 1.39 1.39 0 0 0 .507.061c4.912-.274 9.83-.548 14.752-.535 4.782.013 9.6.78 14.36.578 4.53-.193 9.135-1.742 13.663-.78 2.126.45 3.943.86 6.08.205 2.083-.64 3.904-1.627 6.168-1.6 2.328.02 4.328 1.518 6.62 1.33 2.64-.215 5.362-1.162 7.93-1.753 1.637-.377.943-2.694-.697-2.316m-286.1 2.313l5.448 1.633c.796.165 1.452-.302 2.172-.63s1.477-.523 2.247-.616c1.54-.184 3.02.192 4.437.894.738.366 1.478.807 2.27 1 .933.216 1.787-.127 2.687-.388 3.426-.992 6.753.155 10.17.55 3.554.412 7.153-.393 10.712-.47 4.205-.093 8.406.213 12.6.52a.9.9 0 0 1 .556.24c.03-.008.06-.02.1-.025a44.58 44.58 0 0 1 8.607-.444.8.8 0 0 1 .293.073l2.4-.027c1.56-.018 3.125-.087 4.683.003.758.044 1.518.137 2.264.3.37.087.743.216 1.122.253.363.035.7-.036 1.032-.177.66-.27 1.27-.66 1.958-.83.732-.182 1.483-.223 2.23-.215 1.747.018 3.496.105 5.243.16.717.022.72 1.357 0 1.334l-4.68-.148c-.713-.02-1.438-.042-2.146.08-.724.126-1.36.465-2.033.783a3.27 3.27 0 0 1-2.177.255c-.764-.16-1.503-.36-2.28-.432-1.53-.14-3.07-.068-4.603-.05l-1.238.014c-.097.208-.278.365-.483.348l-.833-.068c-.133.283-.38.484-.743.468a44.58 44.58 0 0 0-8.607.444.72.72 0 0 1-.259-.008.84.84 0 0 1-.388.062c-3.762-.274-7.527-.55-11.297-.536-3.662.013-7.343.782-10.997.578-3.47-.193-6.995-1.742-10.462-.78-1.628.45-3.02.86-4.656.204-1.595-.638-3-1.627-4.723-1.6-1.783.017-3.314 1.518-5.07 1.33-2.023-.215-4.106-1.162-6.074-1.753-1.253-.377-.722-2.694.534-2.316m-10.05 8.882v6.258s15.37-3.957 24.612 0 25.257-.184 32.243.645 26.224-1.38 26.224-1.38 4.837-1.38 8.92 0 17.986-2.485 17.986-2.485-8.635.644-12.3 1.38-6.233-3.405-12.467-2.393-1.397 1.834-12.575 1.976-4.084-1.8-11.822-1.24-10.533 3.682-23.323 2.76-4.944-3.13-16.66-4.877S41.444 81 33.92 79.702s-6.878-1.932-6.878-1.932M322.62 63.196l.083-3.574S312.595 61.7 306.6 59.33s-16.526-.195-21.086-.75-17.176.476-17.176.476-3.182.73-5.836-.106-11.8 1.205-11.8 1.205 5.658-.265 8.058-.642 4.034 2.02 8.125 1.515.938-1.03 8.253-.98 2.65 1.072 7.72.85 6.94-1.977 15.294-1.3 3.194 1.846 10.834 2.984 4.254-1.395 9.158-.57 4.475 1.186 4.475 1.186m-187.317-56.7l2.692 12.143-2.692 4.415 1.347 7.727S131.863 44.9 123.352 41.42l1.72-5.68-4.155-11.512-3.922-14.705L122.65.97l12.653 5.52zM103.998.445V10.9l-4.082 15.934s-.553 4.034 2.04 3.483 3.838-6.197 3.838-6.197l2.072-1.1v-3.167l-1.658-.413.138-2.616 1.52-.55V13.4l-.553-2.892-.553-1.515-.415-2.48.415-2.204.258-1.502.847-4.42-4.56 2.065h.7zm-16.21-1.75l-1.54 5.863 1.54 5.6 4.2 5.318-1.54 5.727-1.96 2.046 4.34 1.636-2.66.818h-3.92l-7.42-1.773 1.26-18 4.62-7.227zM81.48 26.77l1.356 5.114 3.32 3.04 1.1 3.04-.55 5.132-5.225 3.672-3.35-3-1.873-14.098z"/><path d="M74.142 45.96l2.367 4.22-.556 4.817-4.595 1.965h-5.85zM58.748 58.332L54.852 71.13l-1.477 1.203-5.776-.707-6.85-5.374 11.283-5.1zM35.934 72.27L34.8 79.488l-3.883 2.175-4.993-1.203v-9.797zM218.16 30.43l-2.4-1.254-4.466-.53-4.155-.848-3.22.636c-.52.212-6.475-.106-6.475-.106l-5.78.786-4.57-.47c-.3 0-5.6.47-5.6.47l-4.148 1.05h-6.187l5.194 1.316 5.6.468c.3 0 4.57-.468 4.57-.468l5.78.786 6.475-.106c.52.212 3.22.636 3.22.636l4.154-.848 4.466-.53 1.884-1h5.646zm-5.136-8.084l1.067-.502 1.995-.212 1.856-.34 1.44.254c.23.084 2.893-.042 2.893-.042l2.583.315 2.042-.188c.14 0 2.507.188 2.507.188l1.853.42h2.764l-2.32.526-2.507.188c-.14 0-2.04-.188-2.04-.188l-2.584.315-2.893-.042c-.232.084-1.438.254-1.438.254l-1.857-.34-1.995-.212-.842-.396h-2.523z"/></g><path d="M197.884 71.878l-1.067.502-1.995.212-1.856.34-1.44-.254c-.232-.085-2.893.042-2.893.042l-2.583-.315-2.042.188c-.14 0-2.506-.188-2.506-.188l-1.853-.42h-2.764l2.32-.526 2.507-.187c.14 0 2.04.187 2.04.187l2.584-.315 2.893.042c.232-.085 1.44-.254 1.44-.254l1.857.34 1.995.212.842.396h2.523z" fill="#ededff" class="J"/><path d="M110.884 72.49l2.39-1.254 4.466-.53 4.155-.848 3.22.636c.52.212 6.475-.106 6.475-.106l5.78.786 4.57-.47c.31 0 5.61.47 5.61.47l4.148 1.05h6.187L152.7 73.54l-5.61.468c-.31 0-4.57-.468-4.57-.468l-5.78.786-6.475-.106c-.52.212-3.22.636-3.22.636l-4.154-.848-4.467-.53-1.884-.99h-5.646z" fill="#c7c7f0" class="J"/></g><g transform="translate(542.219 336)"><g fill="#d5d6ec"><path d="M123.195 90.107c1.94-6.746-1.986-13.786-8.77-15.725-.233-.067-.467-.125-.7-.178a12.75 12.75 0 0 0-9.241-11.476 12.82 12.82 0 0 0-4.395-.468c-.664-4.844-4.12-9.083-9.147-10.52-4.77-1.363-9.678.16-12.85 3.526a12.95 12.95 0 0 0-1.328-.46c-5.81-1.66-11.832.962-14.66 5.987l-.328-.103c-6.785-1.94-13.858 1.958-15.8 8.703-1.4 4.862.25 9.877 3.822 13.025 5.04 6.902 15.448 13.497 28.39 17.196 14.172 4.05 27.612 3.55 35.36-.58 4.48-.938 8.3-4.246 9.647-8.928" opacity=".4"/><path d="M8.16 90.107c-1.94-6.746 1.986-13.786 8.77-15.725.233-.067.467-.125.7-.178a12.75 12.75 0 0 1 9.241-11.476 12.82 12.82 0 0 1 4.395-.468c.664-4.844 4.12-9.083 9.147-10.52 4.77-1.363 9.678.16 12.85 3.526a12.95 12.95 0 0 1 1.328-.46c5.81-1.66 11.832.962 14.66 5.987l.328-.103c6.785-1.94 13.858 1.958 15.8 8.703 1.4 4.862-.25 9.877-3.822 13.025-5.04 6.902-15.448 13.497-28.39 17.196-14.172 4.05-27.612 3.55-35.36-.58-4.48-.938-8.3-4.246-9.647-8.928" opacity=".4"/></g><ellipse fill="#ddf" opacity=".795" cx="65" cy="96" rx="52" ry="9"/><g transform="translate(29.148)" class="F"><path d="M58.235 64.396s12.67 19.74 12.67 33.348H67.37S68.4 84.58 58.235 84.58V64.396zm-45.5 0S.066 84.135.066 97.743H3.6S2.57 84.58 12.736 84.58V64.396z" class="C"/><path d="M35.193 0h0C30.116 2.628 24.83 14.6 24.83 20.253V69.57h20.734V20.253c0-5.662-5.29-17.64-10.37-20.253z" fill="url(#H)"/><path d="M35.486 0h0c-4.09 2.628-8.35 14.6-8.35 20.253V69.57h16.702V20.253c0-5.662-4.26-17.64-8.35-20.253z" class="C"/><path d="M35.486 0h0c-2.115 2.628-4.32 14.6-4.32 20.253V69.57h8.64V20.253c0-5.662-2.204-17.64-4.32-20.253z" fill="url(#I)"/><path d="M24.83 22.998h20.734v17.824H24.83z" class="C"/><path d="M12.736 83.944h9.79v4.6h-9.79z" class="G"/><path d="M12.16 80.495h11.52v4.6H12.16z" class="H"/><path d="M48.444 83.944h9.79v4.6h-9.79z" class="G"/><path d="M47.292 80.495h11.52v4.6h-11.52z" class="H"/><use xlink:href="#N" class="D"/><use xlink:href="#N" fill="#c2ccd3"/><path d="M18.213 17.824c-2.083 2.618-3.75 14.545-3.75 18.908v22.49L21.95 49.14V36.74c0-4.37-1.657-16.3-3.738-18.917z" class="D"/><path d="M52.764 17.824c-4 2.618-7.2 14.544-7.2 18.907v44.914h14.398V36.74c0-4.37-3.2-16.298-7.2-18.916z" fill="#c2ccd3"/><path d="M52.762 17.824c-2.078 2.618-3.742 14.545-3.742 18.908V49.13l7.487 10.09V36.74c0-4.37-1.664-16.3-3.745-18.917z" class="D"/><path d="M11.008 36.223h14.398v1.15H11.008zm0 27.597h14.398v1.15H11.008zm0 14.95h14.398v1.15H11.008zm34.556-42.547h14.398v1.15H45.564zm0 27.597h14.398v1.15H45.564zm0 14.95h14.398v1.15H45.564z" class="G"/><path d="M44.38 38.522H26.588c.001 9.913-3.954 19.408-10.972 26.347h0v6.303l7.93 1.96c1.787.442 3.043 2.057 3.042 3.913H44.38c0-1.856 1.257-3.472 3.045-3.913l7.93-1.96V64.87c-7.02-6.94-10.975-16.435-10.975-26.347h0z" class="B"/><path d="M55.355 66.764h0C48.336 59.92 44.38 50.557 44.38 40.78V36.38c0-4.865-4.537-15.158-8.896-17.405h0c-4.362 2.247-8.896 12.54-8.896 17.405v4.402c.001 9.775-3.953 19.14-10.972 25.983h0v6.212l7.93 1.935c1.787.436 3.043 2.03 3.042 3.858H44.38c-.001-1.83 1.257-3.425 3.045-3.858l7.93-1.935v-6.212z" class="D"/><path d="M15.616 71.87v1.6l7.93 1.96c1.787.44 3.043 2.054 3.042 3.906H44.38c-.001-1.853 1.257-3.467 3.045-3.906l7.93-1.96v-1.6h-39.74z" fill="#88b541"/><g fill="url(#I)"><path d="M20.223 74.43l1.728.314V71.87h-1.728z"/><path d="M49.02 74.745l1.728-.314v-2.56H49.02z"/></g><g class="B"><use xlink:href="#O"/><use xlink:href="#O"/></g><path d="M35.196 18.974h0c-3.95 2.247-8.062 12.54-8.062 17.405v42.39H43.26V36.38c0-4.865-4.112-15.158-8.065-17.405z" class="D"/><path d="M35.483 18.974h0c-2.96 2.247-6.044 12.54-6.044 17.405v42.39h12.095V36.38c0-4.865-3.087-15.158-6.05-17.405z" class="B"/><path d="M29.438 26.448h12.095c-1.708-3.635-3.915-6.86-6.05-8.05h0c-2.147 1.188-4.34 4.414-6.044 8.05z" class="G"/><path d="M31.742 26.448h6.91c-.976-3.635-2.227-6.86-3.457-8.05h0c-1.227 1.188-2.48 4.414-3.454 8.05z" class="H"/><path d="M19.07 65.546h4.607v2.875H19.07zm28.222 0H51.9v2.875h-4.607z" class="B"/><path d="M35.774 30.473v3.418c.553.076 1.077.284 1.525.606l2.507-2.417c-1.126-.945-2.542-1.5-4.032-1.608h0zm-.576 0a6.96 6.96 0 0 0-4.032 1.608l2.5 2.417a3.41 3.41 0 0 1 1.523-.606v-3.418zm5.285 2.3l-2.405 2.553a3.53 3.53 0 0 1 .645 2.046h3.386c.001-1.692-.577-3.326-1.626-4.6zm-10.567 0c-1.05 1.273-1.63 2.907-1.63 4.6h3.386a3.53 3.53 0 0 1 .645-2.046l-2.402-2.553z" class="H"/><path d="M32.318 79.345v-5.932a4.52 4.52 0 0 0-1.84-3.635c-1.14-.835-2.614-1-3.92-.497v2.535a2.09 2.09 0 0 1 2.341-.469c.8.35 1.32 1.164 1.32 2.066v5.932h2.1zm7.86 0v-5.928c-.003-.902.517-1.717 1.317-2.066a2.09 2.09 0 0 1 2.342.47v-2.533a4.11 4.11 0 0 0-3.927.487c-1.15.825-1.837 2.188-1.832 3.642v5.928h2.1z" class="D"/><path d="M35.196 81.07h0c-.318-.002-.575-.28-.575-.626v-11.4c0-.344.257-.623.575-.623h0c.318 0 .576.278.577.623v11.4c0 .346-.258.626-.577.626z" fill="url(#J)"/><path d="M26.56 79.92h4.607v1.725H26.56z" class="G"/><path d="M25.983 78.77h5.183v1.725h-5.183z" class="H"/><path d="M28.864 69.57c-1.907.005-3.452 1.448-3.457 3.23v7.12h6.91V72.8c-.005-1.78-1.548-3.224-3.454-3.23h0z" class="B"/><path d="M28.574 69.57c-1.426 0-2.592 1.454-2.592 3.23v7.12h5.183V72.8c0-1.777-1.168-3.23-2.592-3.23z" class="D"/><g class="B"><use xlink:href="#P"/><use xlink:href="#P"/></g><path d="M39.805 79.92h4.607v1.725h-4.607z" class="G"/><path d="M39.805 78.77h5.183v1.725h-5.183z" class="H"/><path d="M42.107 69.57c-1.906.006-3.45 1.45-3.454 3.23v7.12h6.91V72.8c-.005-1.782-1.55-3.226-3.457-3.23h0z" class="B"/><path d="M42.397 69.57c-1.423 0-2.592 1.454-2.592 3.23v7.12h5.183V72.8c0-1.777-1.166-3.23-2.592-3.23z" class="D"/><path d="M42.397 69.57c-.79 0-1.44 1.454-1.44 3.23v7.12h2.88V72.8c0-1.777-.65-3.23-1.44-3.23z" class="B"/><path d="M31.742 41.972h2.304v5.75h-2.304zm5.183 0h2.304v5.75h-2.304z" class="D"/><g transform="matrix(.999848 .017452 -.017452 .999848 30.620093 48.832777)"><circle cx="5.196" cy="4.997" r="4.703" class="B"/><g class="C"><path d="M3.31 4.986h-.14a.1.1 0 0 1-.082-.082h0v-.535a.1.1 0 0 1 .082-.082h.14v.7z"/><path d="M3.702 5.068H3.48a.1.1 0 0 1-.088-.082h0v-.67c.003-.046.042-.082.088-.082h.223v.835zm3.404-.082h.14c.043-.005.077-.04.082-.082h0V4.37c-.005-.043-.04-.077-.082-.082h-.14v.7z"/><path d="M6.695 5.068h.223c.044-.003.08-.038.082-.082h0v-.67c0-.045-.037-.082-.082-.082h-.223v.835zm-2.04 1.476h1.117v1H4.655z"/><path d="M5.125 2.117h1v1h-1zM3.65 4.174h3.092v2.37H3.65z"/><ellipse cx="5.213" cy="4.233" rx="1.558" ry="1.423"/></g><g class="E"><circle cx="4.349" cy="4.592" r="1"/><circle cx="6.071" cy="4.592" r="1"/></g><circle cx="5.213" cy="1.923" r="1" class="C"/><path d="M5.213 6.126a2.44 2.44 0 0 1-.87-.17c-.074-.028-.133-.084-.165-.155s-.034-.153-.005-.227h0c.07-.146.24-.217.394-.165h0c.42.167.886.167 1.305 0 .074-.035.158-.036.233-.005s.133.093.16.17c.034.074.035.158.002.233s-.096.13-.173.155c-.28.113-.58.17-.882.165z" class="B"/><path d="M4.514 5.12v1.176l-.06-.03h-.06V5.12h.118zm.417 0h-.06v1.176h.06l.082.03V5.15l-.082-.03zm.5 0h0v1.176h.06l.082.03V5.15l-.14-.03zm.476 0h-.06v1.176h.06l.082.03V5.15l-.082-.03zm1.84 2.147H2.644a.1.1 0 0 0-.065.082h0v.7a4.05 4.05 0 0 0 5.238 0v-.7c-.018-.053-.047-.053-.07-.082z" class="C"/><g class="B"><circle cx="6.048" cy="7.714" r="1"/><circle cx="6.601" cy="7.714" r="1"/></g><circle cx="7.13" cy="7.714" r="1" class="E"/><path d="M5.213 9.03c-2.25.006-4.08-1.763-4.09-4.014a4.08 4.08 0 0 1 4.052-4.1 4.08 4.08 0 0 1 4.107 4.045 4.07 4.07 0 0 1-4.05 4.069h-.018zm0-7.696a3.68 3.68 0 0 0-2.608 6.283 3.68 3.68 0 0 0 6.282-2.608h0a3.71 3.71 0 0 0-3.674-3.675z" class="C"/></g></g></g><ellipse fill="#ddf" cx="412.509" cy="646" rx="180" ry="23"/><g transform="translate(201.219 173)"><g fill="#cecece" class="F"><path d="M115.505 41A3.52 3.52 0 0 0 119 37.467V3.35c-.097-1.877-1.635-3.35-3.5-3.35s-3.403 1.472-3.5 3.35v34.117A3.52 3.52 0 0 0 115.505 41h0z"/><path d="M107.764 476.117L110.658 38.6l7.09.047-2.894 437.517z"/></g><path d="M116.012 103.755S94.33 94.747 83.648 99.5c-19.32 8.607-30.854 14.344-83.543 3.825L0 8.606s32.565 20.082 62.492 4.17c18.757-9.993 52.956-1.568 54.255.784 0 0 3.258 59.356-.736 90.196z" fill="#00c3d4" class="F"/><g class="F"><ellipse cx="57.691" cy="60.704" rx="30.924" ry="30.937" class="B"/><g class="C"><path d="M44.752 60.605h-.965a.61.61 0 0 1-.57-.57h0v-3.638a.62.62 0 0 1 .569-.569h.965v4.777zm2.672.57h-1.52c-.3-.013-.556-.26-.57-.57h0v-4.53a.62.62 0 0 1 .569-.582h1.52v5.68zm23.354-.57h.965a.61.61 0 0 0 .57-.57h0v-3.638a.62.62 0 0 0-.569-.569h-.965v4.777zm-2.684.57h1.52a.62.62 0 0 0 .581-.569h0v-4.53a.63.63 0 0 0-.581-.582h-1.52v5.68zm-14.14 10.123H61.6v4.962h-7.644zM57.2 40.93h1v5.73h-1z"/><path d="M47.1 55.06h21.19v16.236H47.1z"/><ellipse cx="57.778" cy="55.445" rx="10.687" ry="9.739"/></g><g class="E"><ellipse cx="51.865" cy="57.932" rx="2.486" ry="2.487"/><ellipse cx="63.703" cy="57.932" rx="2.486" ry="2.487"/></g><circle cx="57.778" cy="39.593" r="2.288" class="C"/><path d="M57.753 68.45a16.46 16.46 0 0 1-6.185-1.151c-1.04-.41-1.558-1.578-1.163-2.623h0c.475-1.07 1.7-1.584 2.796-1.176h0c2.88 1.138 6.087 1.138 8.968 0 .68-.274 1.456-.164 2.033.288s.87 1.18.767 1.906-.586 1.343-1.266 1.617c-1.888.77-3.91 1.157-5.95 1.138h0z" class="B"/><path d="M53.015 61.558v8.217l-.408-.186-.396-.198v-7.833h.804zm2.857 0h-.396v7.833l.396.198.57.186v-8.217h-.57zm3.44 0h-.198v7.833l.408.198.57.186v-8.217h-.78zm3.24 0h-.396v7.833l.396.198.57.186v-8.217h-.57zm12.605 14.714H40.2c-.3.013-.556.26-.57.57h0v4.764a27.74 27.74 0 0 0 35.872 0V76.84c.037-.384-.16-.384-.346-.57z" class="C"/><g class="B"><circle cx="63.505" cy="79.316" r="1.138"/><circle cx="67.327" cy="79.316" r="1.138"/></g><circle cx="70.951" cy="79.316" r="1.138" class="E"/><path d="M57.753 88.683c-15.45.034-28.005-12.468-28.042-27.926S42.17 32.74 57.62 32.7s28.01 12.46 28.05 27.917v.186c.034 15.36-12.38 27.84-27.733 27.88h-.186zm0-53.1c-13.92.014-25.194 11.31-25.185 25.236s11.298 25.208 25.218 25.203 25.2-11.294 25.2-25.22h0c-.12-13.888-11.352-25.112-25.234-25.22z" class="C"/><ellipse fill="#7ae0fc" opacity=".755" cx="262" cy="86.5" rx="49" ry="49.5"/></g><path d="M326 220.3l-11.423 10.406c-4.364 8.755-9.035 15.86-14.012 21.32-1.632 1.192-4.7 2.423-3-3.566s3.205-12.38 1.3-13.63-5.13 1.954-7.592-.342c-1.642-1.505 4.12-5.908 17.285-13.2L316.14 210l9.86 10.3zM141.097 169l-14-6.595c-9.84-.755-18.238-2.397-25.198-4.925-1.732-1.046-4.034-3.4 2.194-4.05s12.8-1.613 13.224-3.84-3.73-3.965-2.538-7.037c.787-2.042 7.068 1.6 18.842 10.896l13.4 2.765L141.097 169z" fill="#eac7a7"/><path d="M237.18 97.234l3.058-4.33c.555-.752.85-1.655.847-2.58C239.61 78.682 244.18 71 244.18 71L277 86.093l-3.048 29.287.946 14.35-21.524 2.27 2.092-15.296c-10.697.54-14.88-2.068-14.88-2.068-1.325-6.764-1.833-10.532-1.703-15.025l-1.544-1.208c-.182-.134-.3-.333-.33-.552s.032-.442.17-.617h0z" fill="#e8ceb5"/><path d="M309.1 446.635L317 466.6s1.668 6.953-16.348 8.122c-1.5.103-3.007-.05-4.5-.455l-19.533-5.286c-1.85-.484-3.58-1.592-4.96-3.176-2.084-2.416-3.697-6.004 1.9-8.316l18.337-3.503 17.213-7.36zm-70.682 11.55s-13.765 1.917-22.732 5.923c-.816.355-1.465 1.013-1.815 1.838-1.077 2.614-1.082 8.268 16.5 11.142a9.82 9.82 0 0 1 .786.164l10.183 2.73c.485.134.982.22 1.483.26a27.23 27.23 0 0 0 14.511-3.518c1.335-.713 2.006-2.264 1.618-3.744l-4.28-16.04-16.24 1.243z" class="E"/><path d="M301.228 246.348l-1.053 95.512c-.048 4.5.203 8.997.75 13.457L313 452.728c-8.122 5.227-18.11 5.685-26.607 1.22l-17.966-96.36c-.285-1.522-.493-3.06-.624-4.606L262 282.016l.478-37.016 38.75 1.348z" fill="url(#K)"/><path d="M249.573 56S235.17 64.69 238.5 77.244c1.002 3.658 3.275 6.843 6.415 9l2.853 1.99a1.1 1.1 0 0 1 .456 1.062l-.31 2.01 2.485 3.62 2.834-2.627c.314-.29.736-.44 1.164-.4s.826.234 1.097.565c1.252 1.516 2.572 4.394-1.184 7.725l3.775 13.644a28 28 0 0 0 15.159 1.854l11.423-22.103s5.25-11.732 0-18.598c-4.183-5.475-8.094-8.478-17.032-9.3S249.573 56 249.573 56z" fill="url(#L)"/><g class="B"><path d="M223.764 247.862l-4.718 97.248a41.81 41.81 0 0 0 .243 6.9l12.937 109.06s10.768 10.103 23.072 1.356l-2.743-108.152c-.04-1.65.128-3.3.496-4.902l8.9-38.094c.56-2.367 1.488-4.6 2.743-6.632 4.66-7.582 16.06-28.525 12.693-46.563L272.106 245l-48.342 2.862zM251.007 128a76.26 76.26 0 0 0-20.144 3.22 53.31 53.31 0 0 0-19.1 10.914l-20.792 18.44c-3.254 2.883-7.752 4.02-12.03 3.04l-41.844-12.7S131.14 158.468 130 165.2l49.513 26.2a13.83 13.83 0 0 0 12.62.151l37.715-10.272s34.282-11.48 21.16-53.28z"/><path d="M223.216 249.304s47.35 16.482 77.784-2.272l-5.225-44.237c-1.505-13.063-2.74-27.91-3.578-35.834 2.58-7.237 3.67-11.283 3.272-12.136-3.54-7.583-10.535-16.19-20.99-25.825 0 0-7.888 5.488-23.674.375L221 161.204s5.033 43.776 2.216 88.1z"/></g><g transform="matrix(.838671 .544639 -.544639 .838671 220.11194 139.988538)" class="F"><ellipse cx="10.101" cy="10.417" rx="9.766" ry="9.805" class="B"/><g class="C"><path d="M6.182 10.393H5.89c-.088-.015-.156-.084-.17-.172h0V9.106c.014-.088.083-.157.17-.172h.293v1.458z"/><path d="M7 10.564h-.464a.21.21 0 0 1-.183-.172h0V8.996c.006-.097.087-.172.183-.172H7v1.74zm7.068-.17h.293c.1-.01.16-.082.17-.172h0V9.106c-.01-.1-.08-.16-.17-.172h-.293v1.458z"/><path d="M13.213 10.564h.464c.092-.006.165-.08.17-.172h0V8.996c0-.095-.077-.172-.17-.172h-.464v1.74zM8.978 13.64h2.32v1.507h-2.32z"/><path d="M9.954 4.412h1v1.74h-1zM6.9 8.702h6.42v4.94H6.9z"/><ellipse cx="10.137" cy="8.824" rx="3.235" ry="2.966"/></g><g class="E"><circle cx="8.343" cy="9.572" r="1"/><circle cx="11.919" cy="9.572" r="1"/></g><circle cx="10.137" cy="4.008" r="1" class="C"/><path d="M10.137 12.77a5.05 5.05 0 0 1-1.807-.355.61.61 0 0 1-.343-.324c-.067-.15-.07-.32-.01-.473h0a.67.67 0 0 1 .818-.343h0a3.65 3.65 0 0 0 2.71 0c.153-.072.33-.076.485-.01a.6.6 0 0 1 .333.354.59.59 0 0 1 .005.485c-.068.155-.2.273-.36.324a4.67 4.67 0 0 1-1.831.343z" class="B"/><path d="M8.685 10.675v2.45l-.122-.06H8.44v-2.4h.244zm.867 0H9.43v2.45h.122l.17.06v-2.45l-.17-.06zm1.038 0h0v2.45h.122l.17.06v-2.45l-.293-.06zm1 0h-.122v2.45h.122l.17.06v-2.45l-.17-.06zm3.818 4.473H4.803c-.073.027-.125.094-.134.172h0v1.458c3.138 2.67 7.74 2.67 10.876 0V15.32c-.037-.1-.098-.1-.146-.172z" class="C"/><g class="B"><circle cx="11.871" cy="16.079" r="1"/><circle cx="13.018" cy="16.079" r="1"/></g><circle cx="14.117" cy="16.079" r="1" class="E"/><path d="M10.137 18.825c-4.672.013-8.473-3.676-8.496-8.367s3.742-8.514 8.415-8.546 8.488 3.74 8.528 8.432c0 4.67-3.76 8.46-8.41 8.48h-.037zm0-16.043c-3.093-.005-5.884 1.862-7.07 4.73s-.533 6.17 1.654 8.367a7.62 7.62 0 0 0 8.333 1.661c2.857-1.19 4.717-3.993 4.712-7.098h0c-.04-4.214-3.432-7.62-7.63-7.66z" class="C"/></g><path d="M223.464 235s-3.295 2.808 0 21.49c0 0 58.18 7.9 78.018 0 0 0 1.79-12.658-1.293-19.034 0 .01-41.236 5.986-76.725-2.455z" class="E"/><path d="M223.983 210.92l-.37-13.963-.704-13.8c5.175-1.854 10.282-4.47 15.09-7.146-6.312 10.9-11.15 22.625-14.017 34.92z" fill-opacity=".1" fill="#000" style="mix-blend-mode:multiply"/><path d="M275 128l29.907 5.814a23.39 23.39 0 0 1 11.461 6.695l35.59 37.983c2.478 2.645 2.73 6.688.598 9.622l-18.253 25.018S325.9 225.96 314.786 231l-12.995-8.43 22.787-33.913c.194-.29.263-.65.2-.993a1.3 1.3 0 0 0-.576-.829l-32.502-20.3" class="B"/><path d="M302.597 244c1.638-5.314-2.13-8.244-3.976-9.354s-4.97 1.734-7.356-.303c-1.193-1.006 1.647-3.453 8.52-7.343" fill="#eac7a7"/><path d="M228.647 121s31.54 16.186 69.203 0c0 0 4.15 6.225 4.15 13.106 0 0-37.05 15.512-75.864 0 0 .01-3.805-2.088 2.51-13.106z" class="E"/></g><ellipse fill="#8390fa" cx="121.544" cy="134" rx="23.981" ry="24"/><path d="M137.418 152.482l-.145.118A24.29 24.29 0 0 1 121.967 158c-13.478 0-24.405-10.935-24.405-24.424 0-5.868 2.068-11.253 5.514-15.464 3.054 17.505 16.85 31.314 34.34 34.37z" fill="#6b78e0" opacity=".32"/><path d="M97.424 134.63v3.392c-9.1 5.836-8.22 8.753 2.607 8.753 16.24 0 35.292-3.962 45.34-10.038s7.938-9.06-.8-9.71l-.984-2.83c23.24 1.37 24.15 6.436 2.728 15.197s-41.465 11.658-60.132 8.7c-4.303-2.156-4.63-4.372-.98-6.648s7.72-4.545 12.21-6.807z" fill="#a0c1e7"/><g fill="#6a77e2"><ellipse cx="126.556" cy="120.08" rx="1.446" ry="1.44" class="I"/><ellipse cx="118.846" cy="130.64" rx="1.446" ry="1.44" class="I"/><ellipse cx="132.339" cy="124.88" rx="2.41" ry="2.4" class="I"/></g></g></svg>